TITLE ""
FILE "Step1_Track52.mp3" MP3
  TRACK 01 AUDIO
    TITLE "Step1_Track52_01"
    INDEX 01 00:00:00
  TRACK 02 AUDIO
    TITLE "Step1_Track52_02"
    INDEX 01 00:00:24
  TRACK 03 AUDIO
    TITLE "Step1_Track52_03"
    INDEX 01 00:02:09
  TRACK 04 AUDIO
    TITLE "Step1_Track52_04"
    INDEX 01 00:02:68
  TRACK 05 AUDIO
    TITLE "Step1_Track52_05"
    INDEX 01 00:03:69
  TRACK 06 AUDIO
    TITLE "Step1_Track52_06"
    INDEX 01 00:04:10
  TRACK 07 AUDIO
    TITLE "Step1_Track52_07"
    INDEX 01 00:05:06
  TRACK 08 AUDIO
    TITLE "Step1_Track52_08"
    INDEX 01 00:05:31
  TRACK 09 AUDIO
    TITLE "Step1_Track52_09"
    INDEX 01 00:07:53
  TRACK 10 AUDIO
    TITLE "Step1_Track52_10"
    INDEX 01 00:08:16
  TRACK 11 AUDIO
    TITLE "Step1_Track52_11"
    INDEX 01 00:09:15
  TRACK 12 AUDIO
    TITLE "Step1_Track52_12"
    INDEX 01 00:09:29
  TRACK 13 AUDIO
    TITLE "Step1_Track52_13"
    INDEX 01 00:11:08
  TRACK 14 AUDIO
    TITLE "Step1_Track52_14"
    INDEX 01 00:11:51
  TRACK 15 AUDIO
    TITLE "Step1_Track52_15"
    INDEX 01 00:12:49
  TRACK 16 AUDIO
    TITLE "Step1_Track52_16"
    INDEX 01 00:12:55
  TRACK 17 AUDIO
    TITLE "Step1_Track52_17"
    INDEX 01 00:13:46
  TRACK 18 AUDIO
    TITLE "Step1_Track52_18"
    INDEX 01 00:13:62
  TRACK 19 AUDIO
    TITLE "Step1_Track52_19"
    INDEX 01 00:16:11
  TRACK 20 AUDIO
    TITLE "Step1_Track52_20"
    INDEX 01 00:16:33
  TRACK 21 AUDIO
    TITLE "Step1_Track52_21"
    INDEX 01 00:17:28
  TRACK 22 AUDIO
    TITLE "Step1_Track52_22"
    INDEX 01 00:17:40
  TRACK 23 AUDIO
    TITLE "Step1_Track52_23"
    INDEX 01 00:19:10
  TRACK 24 AUDIO
    TITLE "Step1_Track52_24"
    INDEX 01 00:19:57
  TRACK 25 AUDIO
    TITLE "Step1_Track52_25"
    INDEX 01 00:20:52
  TRACK 26 AUDIO
    TITLE "Step1_Track52_26"
    INDEX 01 00:20:66
  TRACK 27 AUDIO
    TITLE "Step1_Track52_27"
    INDEX 01 00:21:61
  TRACK 28 AUDIO
    TITLE "Step1_Track52_28"
    INDEX 01 00:22:10
  TRACK 29 AUDIO
    TITLE "Step1_Track52_29"
    INDEX 01 00:24:26
  TRACK 30 AUDIO
    TITLE "Step1_Track52_30"
    INDEX 01 00:24:38
  TRACK 31 AUDIO
    TITLE "Step1_Track52_31"
    INDEX 01 00:25:47
  TRACK 32 AUDIO
    TITLE "Step1_Track52_32"
    INDEX 01 00:25:55
  TRACK 33 AUDIO
    TITLE "Step1_Track52_33"
    INDEX 01 00:28:09
  TRACK 34 AUDIO
    TITLE "Step1_Track52_34"
    INDEX 01 00:28:36
  TRACK 35 AUDIO
    TITLE "Step1_Track52_35"
    INDEX 01 00:29:34
  TRACK 36 AUDIO
    TITLE "Step1_Track52_36"
    INDEX 01 00:29:41
  TRACK 37 AUDIO
    TITLE "Step1_Track52_37"
    INDEX 01 00:30:35
  TRACK 38 AUDIO
    TITLE "Step1_Track52_38"
    INDEX 01 00:30:58
  TRACK 39 AUDIO
    TITLE "Step1_Track52_39"
    INDEX 01 00:33:25
  TRACK 40 AUDIO
    TITLE "Step1_Track52_40"
    INDEX 01 00:33:53
  TRACK 41 AUDIO
    TITLE "Step1_Track52_41"
    INDEX 01 00:34:54
  TRACK 42 AUDIO
    TITLE "Step1_Track52_42"
    INDEX 01 00:34:62
  TRACK 43 AUDIO
    TITLE "Step1_Track52_43"
    INDEX 01 00:36:63
  TRACK 44 AUDIO
    TITLE "Step1_Track52_44"
    INDEX 01 00:37:25
  TRACK 45 AUDIO
    TITLE "Step1_Track52_45"
    INDEX 01 00:38:21
  TRACK 46 AUDIO
    TITLE "Step1_Track52_46"
    INDEX 01 00:38:36
  TRACK 47 AUDIO
    TITLE "Step1_Track52_47"
    INDEX 01 00:39:32
  TRACK 48 AUDIO
    TITLE "Step1_Track52_48"
    INDEX 01 00:39:44
  TRACK 49 AUDIO
    TITLE "Step1_Track52_49"
    INDEX 01 00:41:25
  TRACK 50 AUDIO
    TITLE "Step1_Track52_50"
    INDEX 01 00:41:56
  TRACK 51 AUDIO
    TITLE "Step1_Track52_51"
    INDEX 01 00:42:62
  TRACK 52 AUDIO
    TITLE "Step1_Track52_52"
    INDEX 01 00:42:69
  TRACK 53 AUDIO
    TITLE "Step1_Track52_53"
    INDEX 01 00:45:15
  TRACK 54 AUDIO
    TITLE "Step1_Track52_54"
    INDEX 01 00:45:38
  TRACK 55 AUDIO
    TITLE "Step1_Track52_55"
    INDEX 01 00:46:40
  TRACK 56 AUDIO
    TITLE "Step1_Track52_56"
    INDEX 01 00:46:50
  TRACK 57 AUDIO
    TITLE "Step1_Track52_57"
    INDEX 01 00:47:45
  TRACK 58 AUDIO
    TITLE "Step1_Track52_58"
    INDEX 01 00:47:59
  TRACK 59 AUDIO
    TITLE "Step1_Track52_59"
    INDEX 01 00:49:40
  TRACK 60 AUDIO
    TITLE "Step1_Track52_60"
    INDEX 01 00:49:70
  TRACK 61 AUDIO
    TITLE "Step1_Track52_61"
    INDEX 01 00:50:65
  TRACK 62 AUDIO
    TITLE "Step1_Track52_62"
    INDEX 01 00:50:73
  TRACK 63 AUDIO
    TITLE "Step1_Track52_63"
    INDEX 01 00:53:14
  TRACK 64 AUDIO
    TITLE "Step1_Track52_64"
    INDEX 01 00:53:52
  TRACK 65 AUDIO
    TITLE "Step1_Track52_65"
    INDEX 01 00:54:59
  TRACK 66 AUDIO
    TITLE "Step1_Track52_66"
    INDEX 01 00:54:65
  TRACK 67 AUDIO
    TITLE "Step1_Track52_67"
    INDEX 01 00:55:58
  TRACK 68 AUDIO
    TITLE "Step1_Track52_68"
    INDEX 01 00:55:72
  TRACK 69 AUDIO
    TITLE "Step1_Track52_69"
    INDEX 01 00:58:31
  TRACK 70 AUDIO
    TITLE "Step1_Track52_70"
    INDEX 01 00:58:61
  TRACK 71 AUDIO
    TITLE "Step1_Track52_71"
    INDEX 01 00:59:56
  TRACK 72 AUDIO
    TITLE "Step1_Track52_72"
    INDEX 01 00:59:62
  TRACK 73 AUDIO
    TITLE "Step1_Track52_73"
    INDEX 01 01:02:47
